<?xml version="1.0" encoding="UTF-8"?>
<svg version="1.1" xmlns="http://www.w3.org/2000/svg" width="771" height="470">
<path d="M0 0 C254.43 0 508.86 0 771 0 C771 155.1 771 310.2 771 470 C516.57 470 262.14 470 0 470 C0 314.9 0 159.8 0 0 Z " fill="#FEFEFE" transform="translate(0,0)"/>
<path d="M0 0 C1.04929687 0.47050781 2.09859375 0.94101563 3.1796875 1.42578125 C5.79198844 2.60563727 8.39850355 3.79655184 11 5 C11 5.66 11 6.32 11 7 C11.68191406 7.08378906 12.36382812 7.16757813 13.06640625 7.25390625 C16.76399911 8.19430603 19.72381816 9.9530337 22.9375 11.9375 C23.59500244 12.33936523 24.25250488 12.74123047 24.92993164 13.15527344 C42.24518393 23.87907715 61.41341388 37.072083 74.5078125 52.8125 C76.71129457 54.56605641 78.30720545 54.12079606 81.0625 53.875 C87.37855016 53.71605304 91.87657264 55.31927059 97 59 C101.76203341 63.80674733 103.98973204 69.53348062 104.4375 76.25 C104.26613798 81.89542665 102.33596818 86.4753535 99 91 C92.6934486 96.45610576 87.11803532 98.38249387 78.8515625 98.2734375 C71.94622277 97.61128164 67.60268888 94.13501315 63.2265625 88.9765625 C60.22825789 84.14489966 59.88112289 80.12195448 60.375 74.5625 C60.50049793 69.94826442 60.50049793 69.94826442 58.578125 65.91796875 C56.47432885 64.12132684 54.27293987 62.57615339 52 61 C50.48399394 59.62156744 48.98488643 58.22440049 47.5 56.8125 C24.0073832 35.71562951 -5.6536445 16.67840956 -37 11 C-37.94746094 10.81695312 -38.89492188 10.63390625 -39.87109375 10.4453125 C-52.90136958 8.59081631 -65.03865791 9.07134099 -75.9375 17.1875 C-83.9389514 28.09857009 -85.50290009 39.86192693 -83.71728516 53.09521484 C-83.16324622 56.29030008 -82.47707022 59.43599736 -81.75390625 62.59765625 C-81.50511719 63.72042969 -81.25632812 64.84320313 -81 66 C-80.6803125 67.1034375 -80.360625 68.206875 -80.03125 69.34375 C-79.98401978 74.86968543 -82.77086832 78.07591297 -85.9375 82.4375 C-86.8027832 83.67790039 -86.8027832 83.67790039 -87.68554688 84.94335938 C-89.10667859 86.97522538 -90.54461227 88.99260154 -92 91 C-96.32745217 88.83627392 -97.50385761 82.38586475 -99 78 C-105.79754298 56.51617409 -108.72985073 32.71457295 -98 12 C-91.94787038 0.75781736 -82.0855116 -5.90520877 -70.14453125 -9.97265625 C-46.62130949 -16.38265965 -21.60391475 -9.77893077 0 0 Z " fill="#FDAB2E" transform="translate(364,64)"/>
<path d="M0 0 C0 0.66 0 1.32 0 2 C0.680625 2.20625 1.36125 2.4125 2.0625 2.625 C12.40363387 7.46553075 18.12751152 17.67336406 22 28 C27.66928535 45.00785605 24.04579434 62.31294202 19.51464844 79.09375 C19.04298007 80.84080247 18.58709643 82.59209664 18.1328125 84.34375 C14.43021825 97.58134359 7.49348108 109.42693727 0.56640625 121.20703125 C-1.08903764 123.95336884 -1.08903764 123.95336884 -2 127 C-2.66 127 -3.32 127 -4 127 C-4.23589844 127.68835938 -4.47179687 128.37671875 -4.71484375 129.0859375 C-6.25890142 132.58705307 -8.31924005 135.55017947 -10.5625 138.625 C-11.00867676 139.24181641 -11.45485352 139.85863281 -11.91455078 140.49414062 C-16.06258626 146.17766922 -20.4504674 151.63257389 -25 157 C-25.4935498 157.58378418 -25.98709961 158.16756836 -26.49560547 158.76904297 C-28.09767293 160.66159249 -29.70392918 162.55047563 -31.3125 164.4375 C-31.8163623 165.02917969 -32.32022461 165.62085938 -32.83935547 166.23046875 C-33.32162598 166.7925 -33.80389648 167.35453125 -34.30078125 167.93359375 C-34.76033203 168.46992432 -35.21988281 169.00625488 -35.69335938 169.55883789 C-37 171 -37 171 -39.30078125 173.0234375 C-41.60151756 175.69969629 -41.60019391 177.70245912 -41.875 181.1875 C-42.79582995 188.37643555 -45.10424144 193.55522827 -50.5859375 198.40234375 C-56.34575402 202.5102332 -63.14699579 202.98164655 -70 202 C-76.8945071 198.88702558 -81.82677883 194.09782114 -84.75 187.125 C-86.78337253 181.07006848 -86.54055408 176.68762761 -83.875 170.875 C-80.17575742 164.02724478 -75.51407946 160.4197883 -68 158 C-62.93599484 157.44217499 -58.60624395 157.62258377 -54 160 C-53.74347656 159.41347656 -53.48695313 158.82695312 -53.22265625 158.22265625 C-51.88826104 155.79687071 -50.45514672 154.32471299 -48.4375 152.4375 C-35.02783832 139.31725548 -24.21000863 123.27469699 -15 107 C-14.47212891 106.07985107 -14.47212891 106.07985107 -13.93359375 105.14111328 C-6.11323362 91.43023281 -0.74139399 77.58058457 2 62 C2.18433594 61.03835937 2.36867188 60.07671875 2.55859375 59.0859375 C4.16819721 47.83295753 3.60095861 36.93517954 -1.6875 26.75 C-7.77093338 19.5156468 -13.90959309 16.69454516 -23.2331543 15.78125 C-25.49340011 15.66109074 -27.73661347 15.62141907 -30 15.625 C-31.21635132 15.62197876 -31.21635132 15.62197876 -32.45727539 15.61889648 C-39.08571149 15.72762265 -45.2005202 16.86538815 -51.56835938 18.66455078 C-55.1566502 19.67078641 -57.4702359 20.23432416 -61 19 C-62.79931641 17.89257812 -62.79931641 17.89257812 -64.6015625 16.53125 C-65.25640625 16.04269531 -65.91125 15.55414063 -66.5859375 15.05078125 C-67.25882812 14.53902344 -67.93171875 14.02726562 -68.625 13.5 C-69.97044261 12.48836985 -71.316757 11.4778978 -72.6640625 10.46875 C-73.55279053 9.79489258 -73.55279053 9.79489258 -74.45947266 9.10742188 C-76.01977733 7.9238836 -76.01977733 7.9238836 -78 7 C-78 6.34 -78 5.68 -78 5 C-53.55151795 -4.87152707 -25.00654276 -12.21249763 0 0 Z " fill="#102A34" transform="translate(484,58)"/>
<path d="M0 0 C4.78618187 2.86141626 8.03839768 7.57679537 10.5 12.5 C10.36980469 13.56863281 10.23960937 14.63726562 10.10546875 15.73828125 C9.51648072 20.71408673 8.9080903 25.86242413 11.59570312 30.31542969 C15.30892792 34.70030381 19.93005451 38.06440837 24.5 41.5 C25.93361421 42.63471269 27.36458159 43.77277695 28.79296875 44.9140625 C41.75616473 55.79201596 41.75616473 55.79201596 56.5 63.5 C56.5 64.16 56.5 64.82 56.5 65.5 C57.13421875 65.73976563 57.7684375 65.97953125 58.421875 66.2265625 C62.60546412 67.95733668 66.667361 69.91993344 70.75 71.875 C73.99494609 73.42760578 77.24465506 74.96931705 80.5 76.5 C81.24918701 76.85771484 81.99837402 77.21542969 82.77026367 77.58398438 C98.75673407 85.0047086 119.76075906 89.42310882 136.9375 83.8125 C143.90668073 80.69213359 148.23035475 75.27795074 151.5 68.5 C155.60001273 56.15769365 153.46425998 43.74978509 150.47265625 31.46875 C150.22684814 30.42750977 150.22684814 30.42750977 149.97607422 29.36523438 C149.49198222 27.35307164 149.49198222 27.35307164 148.57421875 24.875 C148.45463264 21.04824438 150.8936718 18.77480179 153.25 16 C154.163849 14.88737594 155.075354 13.77282204 155.984375 12.65625 C156.63889648 11.86154297 156.63889648 11.86154297 157.30664062 11.05078125 C158.67749264 9.33644356 158.67749264 9.33644356 160.203125 6.59375 C160.63109375 5.9028125 161.0590625 5.211875 161.5 4.5 C162.16 4.5 162.82 4.5 163.5 4.5 C172.66440434 27.747039 180.23264779 53.58807883 171.109375 78.11328125 C165.39439701 90.13970337 156.80525485 98.23684379 144.59375 103.43359375 C135.94553619 106.41460684 126.6591851 108.31285953 117.5 107.5 C116.36691406 107.4071875 115.23382813 107.314375 114.06640625 107.21875 C106.44873049 106.43357827 99.10661653 105.08924961 91.6875 103.1875 C90.9361377 102.99905518 90.18477539 102.81061035 89.41064453 102.61645508 C83.11229986 100.9181098 77.37306661 98.31040931 71.5 95.5 C70.50073486 95.02699463 69.50146973 94.55398926 68.47192383 94.06665039 C65.41480398 92.61509448 62.36293765 91.1530406 59.3125 89.6875 C58.26513672 89.18541016 57.21777344 88.68332031 56.13867188 88.16601562 C53.59197319 86.94499571 51.04575868 85.72297823 48.5 84.5 C48.5 83.84 48.5 83.18 48.5 82.5 C47.819375 82.2628125 47.13875 82.025625 46.4375 81.78125 C42.85994233 80.22082591 39.72014262 78.17895624 36.5 76 C35.84136963 75.55640137 35.18273926 75.11280273 34.50415039 74.65576172 C25.26663761 68.37012329 16.56239814 61.4937833 8.0625 54.25 C7.49523193 53.7667627 6.92796387 53.28352539 6.34350586 52.78564453 C3.5535471 50.37705297 0.99162789 47.94224709 -1.48046875 45.20703125 C-4.52746639 42.11747078 -7.01671449 41.70443285 -11.375 41.4375 C-17.3286642 40.82573578 -22.09545797 39.76775501 -26.5 35.5 C-26.5 34.84 -26.5 34.18 -26.5 33.5 C-27.16 33.5 -27.82 33.5 -28.5 33.5 C-32.1418625 26.62273286 -33.66865927 21.10330382 -32.0625 13.40234375 C-30.16515652 7.24783583 -26.05142125 2.81112012 -20.69921875 -0.671875 C-14.58964716 -2.97245968 -5.97506179 -2.61698443 0 0 Z " fill="#FDA72A" transform="translate(333.5,194.5)"/>
<path d="M0 0 C6.0644791 3.13584682 10.81637525 8.69540552 13.33984375 14.94921875 C14.67602377 23.11476333 13.59472933 28.53989652 8.90234375 35.38671875 C5.27242774 38.95076935 0.89439224 42.19813578 -4.09765625 43.38671875 C-4.78085937 43.27199219 -5.4640625 43.15726563 -6.16796875 43.0390625 C-9.15871142 42.62074319 -11.1505331 42.62888708 -14.09765625 43.38671875 C-23.64525656 50.63910907 -31.00167159 60.8170024 -38.09765625 70.38671875 C-38.52143555 70.9497168 -38.94521484 71.51271484 -39.38183594 72.09277344 C-57.81571796 96.64766778 -76.29430878 128.49989529 -72.77734375 160.28125 C-71.4792665 168.90756338 -68.85237933 175.62049173 -62.09765625 181.38671875 C-55.81667087 185.84952415 -49.09443715 186.75219665 -41.59765625 186.69921875 C-40.81664551 186.69720459 -40.03563477 186.69519043 -39.23095703 186.69311523 C-32.7760584 186.58376566 -26.8195647 185.61737073 -20.52734375 184.140625 C-19.39554687 183.89183594 -18.26375 183.64304687 -17.09765625 183.38671875 C-16.44724365 183.22647217 -15.79683105 183.06622559 -15.12670898 182.90112305 C-11.04861902 182.09174977 -9.29911521 182.27287048 -5.6484375 184.3359375 C-4.5503901 185.22621066 -3.47088676 186.13979637 -2.41015625 187.07421875 C-1.86810547 187.52216797 -1.32605469 187.97011719 -0.76757812 188.43164062 C0.295898 189.31295317 1.35203951 190.20320694 2.39990234 191.10302734 C4.52445175 192.91825009 6.71219937 194.6516693 8.90234375 196.38671875 C-13.76049466 206.03047978 -38.60209886 213.00461202 -62.68359375 204.41015625 C-74.9330422 199.21702438 -84.59585982 191.37279069 -90.1015625 179.046875 C-100.98225864 149.98901589 -90.04879698 121.63709057 -78.11328125 94.90625 C-76.80507883 92.05000805 -75.47780649 89.20873326 -74.09765625 86.38671875 C-73.43765625 86.38671875 -72.77765625 86.38671875 -72.09765625 86.38671875 C-71.82953125 85.52046875 -71.56140625 84.65421875 -71.28515625 83.76171875 C-70.12653638 80.46879911 -68.71555786 77.47544 -67.09765625 74.38671875 C-66.43765625 74.38671875 -65.77765625 74.38671875 -65.09765625 74.38671875 C-64.87980469 73.71640625 -64.66195313 73.04609375 -64.4375 72.35546875 C-62.67219579 68.44400753 -60.25875574 65.28429063 -57.66015625 61.88671875 C-56.86097778 60.83266846 -56.86097778 60.83266846 -56.0456543 59.75732422 C-48.77298533 50.24467751 -41.01538384 41.20026405 -32.77734375 32.5078125 C-29.94552531 28.93181851 -30.03166472 26.17123694 -30.34765625 21.76171875 C-30.3831282 15.74922331 -28.59633469 11.24971438 -25.09765625 6.38671875 C-18.07147867 -0.3523971 -9.59787613 -2.80608296 0 0 Z " fill="#0F2A34" transform="translate(353.09765625,93.61328125)"/>
<path d="M0 0 C3.96 0 7.92 0 12 0 C15 5.75 15 5.75 15 8 C15.66 8 16.32 8 17 8 C17 5.69 17 3.38 17 1 C28.88 1 40.76 1 53 1 C53.06886342 7.47826293 53.1286004 13.95525645 53.16479492 20.43359375 C53.17988291 22.63741356 53.20035576 24.84120335 53.22631836 27.04492188 C53.26270058 30.21231497 53.27972632 33.37931111 53.29296875 36.546875 C53.30845261 37.53242371 53.32393646 38.51797241 53.33988953 39.53338623 C53.34011612 40.4540387 53.34034271 41.37469116 53.34057617 42.32324219 C53.34723801 43.1315448 53.35389984 43.93984741 53.36076355 44.77264404 C52.90510862 47.58585987 51.94107467 48.93778259 50 51 C46.98509443 52.00496852 44.95818308 52.10335303 41.8125 52.0625 C40.91144531 52.05347656 40.01039063 52.04445313 39.08203125 52.03515625 C38.39496094 52.02355469 37.70789063 52.01195312 37 52 C37.33 50.35 37.66 48.7 38 47 C35.69 47 33.38 47 31 47 C30.16628641 44.04491553 29.82110466 41.29890387 29.68359375 38.234375 C29.64169922 37.34492188 29.59980469 36.45546875 29.55664062 35.5390625 C29.51732422 34.61867188 29.47800781 33.69828125 29.4375 32.75 C29.39431641 31.81414062 29.35113281 30.87828125 29.30664062 29.9140625 C29.2008195 27.60951359 29.09873443 25.30486161 29 23 C28.01 23 27.02 23 26 23 C26 30.59 26 38.18 26 46 C22.7 46 19.4 46 16 46 C16 38.08 16 30.16 16 22 C12.04 22 8.08 22 4 22 C4 20.02 4 18.04 4 16 C7.96 16 11.92 16 16 16 C16 14.35 16 12.7 16 11 C12.04 11 8.08 11 4 11 C2.68 7.37 1.36 3.74 0 0 Z " fill="#EEEEEE" transform="translate(238,333)"/>
<path d="M0 0 C7.59 0 15.18 0 23 0 C21.56810833 3.57972918 20.52021243 5.89736155 18.4375 8.9375 C16.28589348 12.2724901 15.30144456 14.98073921 15 19 C17.97 19 20.94 19 24 19 C24 18.01 24 17.02 24 16 C32.58 16 41.16 16 50 16 C50.0825 19.5475 50.165 23.095 50.25 26.75 C50.28641602 27.86213867 50.32283203 28.97427734 50.36035156 30.12011719 C50.44224633 37.36119974 50.44224633 37.36119974 48.171875 40.640625 C44.89820505 42.68961266 42.32678872 43.12299858 38.55078125 43.09765625 C37.78677002 43.09515869 37.02275879 43.09266113 36.2355957 43.09008789 C35.27097412 43.08098389 34.30635254 43.07187988 33.3125 43.0625 C28.7028125 43.0315625 28.7028125 43.0315625 24 43 C23.67 35.74 23.34 28.48 23 21 C17.35667056 28.38763126 15.15561154 33.3905772 15.43969727 42.515625 C15.47887815 46.16890516 15.28154206 47.68433163 12.80859375 50.45703125 C9.74933967 52.1377063 8.13457087 52.43384378 4.6875 52.25 C3.80449219 52.21390625 2.92148437 52.1778125 2.01171875 52.140625 C1.34785156 52.09421875 0.68398438 52.0478125 0 52 C0.25 49.625 0.25 49.625 1 47 C2.31647119 46.30062468 3.65022151 45.63270867 5 45 C5.80528889 42.94999129 5.80528889 42.94999129 6 41 C3.69 41 1.38 41 -1 41 C-0.36771484 40.07380859 -0.36771484 40.07380859 0.27734375 39.12890625 C4.08867769 33.23703237 5.77347011 29.02242668 6 22 C3.69 22 1.38 22 -1 22 C-0.62746094 21.41992188 -0.25492187 20.83984375 0.12890625 20.2421875 C3.16663121 15.33756559 3.16663121 15.33756559 4 9.75 C2.96360941 6.89992587 1.62923876 4.55011284 0 2 C0 1.34 0 0.68 0 0 Z " fill="#070707" transform="translate(295,333)"/>
<path d="M0 0 C5.011875 -0.103125 10.02375 -0.20625 15.1875 -0.3125 C16.76039795 -0.35802002 18.3332959 -0.40354004 19.95385742 -0.45043945 C21.20013916 -0.46292725 22.4464209 -0.47541504 23.73046875 -0.48828125 C25.00301514 -0.51446533 26.27556152 -0.54064941 27.58666992 -0.56762695 C31.97919168 0.16283675 33.40785893 1.41782198 36 5 C36.56762695 8.04614258 36.56762695 8.04614258 36.48828125 11.39453125 C36.47216797 12.59658203 36.45605469 13.79863281 36.43945312 15.03710938 C36.37661133 16.90592773 36.37661133 16.90592773 36.3125 18.8125 C36.28994141 20.07771484 36.26738281 21.34292969 36.24414062 22.64648438 C36.18529078 25.76552619 36.1031137 28.88215902 36 32 C36.99 32 37.98 32 39 32 C39 33.65 39 35.3 39 37 C25.14 37 11.28 37 -3 37 C-3 35.35 -3 33.7 -3 32 C-2.01 32 -1.02 32 0 32 C0 21.44 0 10.88 0 0 Z " fill="#040404" transform="translate(452,348)"/>
<path d="M0 0 C8.58 0 17.16 0 26 0 C26.02300573 6.28056382 26.0429045 12.56098029 26.05493164 18.84155273 C26.05994778 20.97632341 26.06676224 23.11109067 26.07543945 25.24584961 C26.08762435 28.32146042 26.09325562 31.39702563 26.09765625 34.47265625 C26.10281754 35.42084732 26.10797882 36.36903839 26.11329651 37.34596252 C26.1137157 42.34312118 25.85595812 47.07453858 25 52 C22.03 52 19.06 52 16 52 C16 50.02 16 48.04 16 46 C15.34773438 46.144375 14.69546875 46.28875 14.0234375 46.4375 C9.27379823 47.44627294 4.88590812 48.25715306 0 48 C0 46.02 0 44.04 0 42 C0.66 42 1.32 42 2 42 C2 30.12 2 18.24 2 6 C1.34 6 0.68 6 0 6 C0 4.02 0 2.04 0 0 Z " fill="#050505" transform="translate(361,333)"/>
<path d="M0 0 C20.13 0 40.26 0 61 0 C61 2.64 61 5.28 61 8 C45.49 8 29.98 8 14 8 C13.67 9.98 13.34 11.96 13 14 C23.89 14 34.78 14 46 14 C45.505 12.02 45.505 12.02 45 10 C48.63 10 52.26 10 56 10 C56.83790789 11.78953185 57.67019396 13.58169695 58.5 15.375 C58.9640625 16.37273437 59.428125 17.37046875 59.90625 18.3984375 C61 21 61 21 61 23 C57.37 23 53.74 23 50 23 C50 22.34 50 21.68 50 21 C33.83 21 17.66 21 1 21 C3 12 3 12 4 8 C2.68 8 1.36 8 0 8 C0 5.36 0 2.72 0 0 Z " fill="#121212" transform="translate(495,362)"/>
<path d="M0 0 C2.97 0 5.94 0 9 0 C11 4 11 4 11 7 C13.64 7 16.28 7 19 7 C19.66 4.69 20.32 2.38 21 0 C23.97 0 26.94 0 30 0 C29.125 5.75 29.125 5.75 28 8 C29.65 8 31.3 8 33 8 C33 9.98 33 11.96 33 14 C28.38 14 23.76 14 19 14 C19 18.62 19 23.24 19 28 C23.62 28 28.24 28 33 28 C33 30.31 33 32.62 33 35 C31.9378125 34.8865625 30.875625 34.773125 29.78125 34.65625 C25.37465168 34.41519908 21.11095546 34.1947633 17 36 C12.83301509 40.36874082 10.92335303 46.38811139 9 52 C5.7 52 2.4 52 -1 52 C0.48904175 48.10391502 2.24378713 44.40902982 4.125 40.6875 C4.93324219 39.08455078 4.93324219 39.08455078 5.7578125 37.44921875 C6.37269531 36.23685547 6.37269531 36.23685547 7 35 C3.7 35 0.4 35 -3 35 C-3 32.69 -3 30.38 -3 28 C0.96 28 4.92 28 9 28 C9 23.38 9 18.76 9 14 C5.04 14 1.08 14 -3 14 C-3 11.69 -3 9.38 -3 7 C-1.35 7 0.3 7 2 7 C1.34 4.69 0.68 2.38 0 0 Z " fill="#0B0B0B" transform="translate(391,333)"/>
<path d="M0 0 C3.63 0 7.26 0 11 0 C10.67 1.32 10.34 2.64 10 4 C18.91 4 27.82 4 37 4 C37.11489953 10.03350196 37.2144029 16.06319872 37.2746582 22.09692383 C37.29977806 24.14848706 37.33388036 26.19996101 37.37719727 28.2512207 C37.43796002 31.20286091 37.46623492 34.1533165 37.48828125 37.10546875 C37.51408768 38.02023483 37.5398941 38.93500092 37.56648254 39.87748718 C37.56843061 44.31630119 37.43911631 46.38344326 34.80078125 50.08789062 C31.72532192 52.18752429 30.36925119 52.59559214 26.69921875 52.48828125 C25.72275391 52.47216797 24.74628906 52.45605469 23.74023438 52.43945312 C22.22913086 52.37661133 22.22913086 52.37661133 20.6875 52.3125 C19.66076172 52.28994141 18.63402344 52.26738281 17.57617188 52.24414062 C15.0492821 52.18537575 12.52539745 52.10327849 10 52 C10.875 47.125 10.875 47.125 12 46 C16.62 45.67 21.24 45.34 26 45 C26.33 33.78 26.66 22.56 27 11 C17.1 11 7.2 11 -3 11 C-2.01 7.37 -1.02 3.74 0 0 Z " fill="#070707" transform="translate(321,333)"/>
<path d="M0 0 C11.55 0 23.1 0 35 0 C35.06886342 6.47826293 35.1286004 12.95525645 35.16479492 19.43359375 C35.17988291 21.63741356 35.20035576 23.84120335 35.22631836 26.04492188 C35.26270058 29.21231497 35.27972632 32.37931111 35.29296875 35.546875 C35.30845261 36.53242371 35.32393646 37.51797241 35.33988953 38.53338623 C35.34011612 39.4540387 35.34034271 40.37469116 35.34057617 41.32324219 C35.34723801 42.1315448 35.35389984 42.93984741 35.36076355 43.77264404 C34.90510862 46.58585987 33.94107467 47.93778259 32 50 C28.98509443 51.00496852 26.95818308 51.10335303 23.8125 51.0625 C22.91144531 51.05347656 22.01039063 51.04445313 21.08203125 51.03515625 C20.39496094 51.02355469 19.70789063 51.01195312 19 51 C20.3125 48.0625 20.3125 48.0625 22 45 C23.485 44.505 23.485 44.505 25 44 C25 31.79 25 19.58 25 7 C16.75 7 8.5 7 0 7 C0 4.69 0 2.38 0 0 Z " fill="#040404" transform="translate(256,334)"/>
<path d="M0 0 C5.7853125 -0.1546875 5.7853125 -0.1546875 11.6875 -0.3125 C13.4986731 -0.38078003 13.4986731 -0.38078003 15.34643555 -0.45043945 C23.04387942 -0.55035603 23.04387942 -0.55035603 25.85009766 1.06494141 C27.6576396 2.83605933 28.87217491 4.74434981 30 7 C30.04259733 11.41308343 29.80364944 14.96303299 27.0625 18.5 C23.06330133 21.40850812 19.66013349 21.11621912 14.875 21.0625 C14.12089844 21.05798828 13.36679687 21.05347656 12.58984375 21.04882812 C10.72652873 21.03703499 8.86325445 21.01909942 7 21 C7 24.96 7 28.92 7 33 C4.69 33 2.38 33 0 33 C0 22.11 0 11.22 0 0 Z " fill="#BA9817" transform="translate(412,414)"/>
<path d="M0 0 C8.25 0 16.5 0 25 0 C25.0825 3.5475 25.165 7.095 25.25 10.75 C25.28641602 11.86213867 25.32283203 12.97427734 25.36035156 14.12011719 C25.43952908 21.12094185 25.43952908 21.12094185 23.65625 24.6875 C19.31688587 26.8316564 15.00698703 26.41343555 10.25 26.25 C5.17625 26.12625 5.17625 26.12625 0 26 C0 17.42 0 8.84 0 0 Z " fill="#020202" transform="translate(320,349)"/>
<path d="M0 0 C1.95790807 0.00157235 3.91629108 0.05747974 5.87158203 0.15869141 C6.90630646 0.17284088 7.94103088 0.18699036 9.0071106 0.2015686 C12.3008599 0.25740013 15.5877155 0.38279994 18.87939453 0.51025391 C21.11627518 0.56042996 23.35326288 0.60605465 25.59033203 0.64697266 C31.06402437 0.75701926 36.53371721 0.92416206 42.00439453 1.13525391 C43.34297977 3.42399564 44.67540467 5.71595047 46.00439453 8.01025391 C46.38595703 8.66123047 46.76751953 9.31220703 47.16064453 9.98291016 C50.00439453 14.90869141 50.00439453 14.90869141 50.00439453 17.13525391 C46.70439453 17.13525391 43.40439453 17.13525391 40.00439453 17.13525391 C39.28703125 14.940625 39.28703125 14.940625 38.55517578 12.70166016 C37.27121536 10.10150262 37.27121536 10.10150262 35.00439453 8.13525391 C29.41365762 6.80160507 23.91095246 6.96577184 18.19189453 7.07275391 C16.6248239 7.06967773 15.05775564 7.06255963 13.49072266 7.05126953 C9.66039287 7.03246589 5.83415942 7.06901035 2.00439453 7.13525391 C0.95880017 9.7274566 -0.05905911 12.31371726 -0.99560547 14.94775391 C-2.99560547 17.13525391 -2.99560547 17.13525391 -5.41357422 17.44775391 C-7.95934689 17.44775391 -10.45942728 17.34937777 -12.99560547 17.13525391 C-11.11327812 9.98240997 -8.29277354 0.80268726 0 0 Z " fill="#070707" transform="translate(506.99560546875,331.86474609375)"/>
<path d="M0 0 C3.3 0 6.6 0 10 0 C10 1.32 10 2.64 10 4 C13.96 4 17.92 4 22 4 C22 5.98 22 7.96 22 10 C18.04 10 14.08 10 10 10 C10 17.92 10 25.84 10 34 C6.7 34 3.4 34 0 34 C0 26.08 0 18.16 0 10 C-3.96 10 -7.92 10 -12 10 C-12 8.02 -12 6.04 -12 4 C-8.04 4 -4.08 4 0 4 C0 2.68 0 1.36 0 0 Z " fill="#060606" transform="translate(254,345)"/>
<path d="M0 0 C3.3 0 6.6 0 10 0 C10 15.18 10 30.36 10 46 C6.7 46 3.4 46 0 46 C0 30.82 0 15.64 0 0 Z " fill="#040404" transform="translate(228,339)"/>
<path d="M0 0 C4.95 0 9.9 0 15 0 C15 9.9 15 19.8 15 30 C16.65 30 18.3 30 20 30 C19.01 31.98 18.02 33.96 17 36 C15.3973218 36.10824843 13.79254252 36.18570645 12.1875 36.25 C11.29417969 36.29640625 10.40085937 36.3428125 9.48046875 36.390625 C7 36 7 36 5.36328125 34.34179688 C3.65248612 31.40305281 3.65519717 29.52711836 3.70703125 26.140625 C3.7215332 24.46806641 3.7215332 24.46806641 3.73632812 22.76171875 C3.76146484 21.60285156 3.78660156 20.44398438 3.8125 19.25 C3.83280273 17.48849609 3.83280273 17.48849609 3.85351562 15.69140625 C3.8888522 12.79380702 3.93819021 9.89713573 4 7 C2.68 7 1.36 7 0 7 C0 4.69 0 2.38 0 0 Z " fill="#0C0C0C" transform="translate(427,349)"/>
<path d="M0 0 C17.82 0 35.64 0 54 0 C54 2.31 54 4.62 54 7 C36.18 7 18.36 7 0 7 C0 4.69 0 2.38 0 0 Z " fill="#090909" transform="translate(499,352)"/>
<path d="M0 0 C2.64 0 5.28 0 8 0 C8.02505615 0.78238037 8.0501123 1.56476074 8.07592773 2.37084961 C8.19149788 5.89324949 8.31439949 9.4153556 8.4375 12.9375 C8.47681641 14.16919922 8.51613281 15.40089844 8.55664062 16.66992188 C8.61948242 18.4246582 8.61948242 18.4246582 8.68359375 20.21484375 C8.72025146 21.29886475 8.75690918 22.38288574 8.79467773 23.49975586 C8.72364265 25.939263 8.72364265 25.939263 10 27 C12.18292774 27.23481693 14.37203174 27.41363323 16.5625 27.5625 C17.76003906 27.64628906 18.95757812 27.73007812 20.19140625 27.81640625 C21.58166016 27.90728516 21.58166016 27.90728516 23 28 C23 29.98 23 31.96 23 34 C20.62374823 34.10883596 18.25256024 34.18766696 15.875 34.25 C15.20984375 34.28351563 14.5446875 34.31703125 13.859375 34.3515625 C8.72295168 34.45227668 5.8928447 33.30371983 2 30 C-0.19408079 26.64937832 -0.23405502 23.87361247 -0.1953125 19.921875 C-0.18886719 18.76171875 -0.18242187 17.6015625 -0.17578125 16.40625 C-0.15902344 15.1996875 -0.14226562 13.993125 -0.125 12.75 C-0.11597656 11.52796875 -0.10695313 10.3059375 -0.09765625 9.046875 C-0.07409513 6.03105218 -0.04119706 3.01562508 0 0 Z " fill="#BE9E25" transform="translate(379,413)"/>
<path d="M0 0 C3.32460845 -0.40709491 5.93634219 -0.60440026 8.91796875 1.08984375 C13.06132111 4.42042763 15.46002731 7.85573939 17 13 C17.28008381 15.76788705 17.42244916 18.24794858 17.375 21 C17.38660156 21.67289062 17.39820313 22.34578125 17.41015625 23.0390625 C17.37345737 29.37573597 15.62773 33.79777705 11.875 38.875 C8.02252514 41.72248142 4.69294723 41.88753286 0 42 C0 40.35 0 38.7 0 37 C1.3921875 36.4121875 1.3921875 36.4121875 2.8125 35.8125 C6.41790957 33.76236515 7.29352922 32.72000563 9 29 C9.28892087 26.23542385 9.42072 23.75336016 9.375 21 C9.38660156 20.30132812 9.39820313 19.60265625 9.41015625 18.8828125 C9.38488416 14.41807738 8.78744055 11.51516396 6 8 C2.93319201 6.17370206 2.93319201 6.17370206 0 5 C0 3.35 0 1.7 0 0 Z " fill="#BA9818" transform="translate(462,409)"/>
<path d="M0 0 C0 1.65 0 3.3 0 5 C-0.928125 5.37125 -1.85625 5.7425 -2.8125 6.125 C-6.67961199 8.39977176 -7.36421301 9.87204342 -9 14 C-9.50841308 17.67877287 -9.50841308 17.67877287 -9.4375 21.5 C-9.45683594 22.7684375 -9.47617187 24.036875 -9.49609375 25.34375 C-8.92172862 29.57686625 -7.6888704 31.7185006 -5 35 C-2.39562767 36.41190564 -2.39562767 36.41190564 0 37 C0 38.65 0 40.3 0 42 C-3.77600178 42.55066693 -5.88126304 42.69293403 -9.17578125 40.65234375 C-13.45486965 37.09295578 -15.65364625 34.51806067 -17 29 C-17.75812511 20.41379233 -18.17704602 12.27584846 -13 5 C-8.52930511 0.84864046 -6.04105608 -0.13132731 0 0 Z " fill="#BA9818" transform="translate(325,409)"/>
<path d="M0 0 C3.63 0 7.26 0 11 0 C11 0.99 11 1.98 11 3 C12.10408203 2.91298828 12.10408203 2.91298828 13.23046875 2.82421875 C21.20650636 2.45544554 21.20650636 2.45544554 25.1875 5.1875 C27.11365965 8.17636842 27.49602754 9.52780724 27 13 C24.36 13 21.72 13 19 13 C18.34 11.68 17.68 10.36 17 9 C8.75 8.67 0.5 8.34 -8 8 C-8 9.65 -8 11.3 -8 13 C-10.64 13 -13.28 13 -16 13 C-16 9.7 -16 6.4 -16 3 C-10.72 3 -5.44 3 0 3 C0 2.01 0 1.02 0 0 Z " fill="#050505" transform="translate(464,333)"/>
<path d="M0 0 C2.31 0 4.62 0 7 0 C7.08725659 4.2290362 7.1404789 8.45784012 7.1875 12.6875 C7.21263672 13.88568359 7.23777344 15.08386719 7.26367188 16.31835938 C7.27333984 17.47529297 7.28300781 18.63222656 7.29296875 19.82421875 C7.3086792 20.88729248 7.32438965 21.95036621 7.34057617 23.0456543 C6.83652926 27.41803546 5.17740308 30.03590973 1.80078125 32.80078125 C-1.78262757 34.33509995 -4.99263079 34.33005971 -8.8125 34.1875 C-9.85180664 34.16719727 -9.85180664 34.16719727 -10.91210938 34.14648438 C-12.60841265 34.11138845 -14.30431136 34.05758943 -16 34 C-16 32.02 -16 30.04 -16 28 C-15.08476562 27.95101563 -14.16953125 27.90203125 -13.2265625 27.8515625 C-12.03804688 27.77679688 -10.84953125 27.70203125 -9.625 27.625 C-7.84996094 27.52058594 -7.84996094 27.52058594 -6.0390625 27.4140625 C-2.89437681 27.29782654 -2.89437681 27.29782654 -1 25 C-0.62826984 22.3817233 -0.62826984 22.3817233 -0.5859375 19.3359375 C-0.54726563 18.21445312 -0.50859375 17.09296875 -0.46875 15.9375 C-0.4378125 14.761875 -0.406875 13.58625 -0.375 12.375 C-0.31699219 10.59996094 -0.31699219 10.59996094 -0.2578125 8.7890625 C-0.16331155 5.85953309 -0.07775442 2.93001403 0 0 Z " fill="#BB9919" transform="translate(361,413)"/>
<path d="M0 0 C2.64 0 5.28 0 8 0 C7.67 7.26 7.34 14.52 7 22 C4.36 22 1.72 22 -1 22 C-1.02726927 19.64575325 -1.04696719 17.29183038 -1.0625 14.9375 C-1.07990234 12.97103516 -1.07990234 12.97103516 -1.09765625 10.96484375 C-1.00452335 7.1836481 -0.61448726 3.72079293 0 0 Z " fill="#070707" transform="translate(243,357)"/>
<path d="M0 0 C2.64 0 5.28 0 8 0 C9.17402193 7.33763707 9.09377123 14.58165418 9 22 C6.69 22 4.38 22 2 22 C1.09166031 19.27498092 0.81640015 17.37766029 0.68359375 14.55078125 C0.64169922 13.70322266 0.59980469 12.85566406 0.55664062 11.98242188 C0.51732422 11.10134766 0.47800781 10.22027344 0.4375 9.3125 C0.39431641 8.41982422 0.35113281 7.52714844 0.30664062 6.60742188 C0.20064647 4.40509892 0.09857949 2.20266527 0 0 Z " fill="#0B0B0B" transform="translate(267,357)"/>
<path d="M0 0 C1.93719378 -0.05406122 3.87481921 -0.09282025 5.8125 -0.125 C6.89144531 -0.14820313 7.97039062 -0.17140625 9.08203125 -0.1953125 C12 0 12 0 15 2 C15.3125 5 15.3125 5 15 8 C13 10 13 10 9.9609375 10.1953125 C8.77757812 10.17210937 7.59421875 10.14890625 6.375 10.125 C5.18648438 10.10695313 3.99796875 10.08890625 2.7734375 10.0703125 C1.85820312 10.04710937 0.94296875 10.02390625 0 10 C0 6.7 0 3.4 0 0 Z " fill="#FBF9F2" transform="translate(419,419)"/>
<path d="M0 0 C3.3 0 6.6 0 10 0 C11.00460531 2.12282669 12.00355602 4.24833021 13 6.375 C13.556875 7.55835938 14.11375 8.74171875 14.6875 9.9609375 C16 13 16 13 16 15 C13.03 15 10.06 15 7 15 C5.83092416 12.68868934 4.66464108 10.37604377 3.5 8.0625 C3.16613281 7.40314453 2.83226562 6.74378906 2.48828125 6.06445312 C0 1.11328125 0 1.11328125 0 0 Z " fill="#070707" transform="translate(408,370)"/>
<path d="M0 0 C3.63 0 7.26 0 11 0 C15 8.625 15 8.625 15 12 C11.7 12 8.4 12 5 12 C3.35 8.04 1.7 4.08 0 0 Z " fill="#0D0D0D" transform="translate(427,333)"/>
<path d="M0 0 C3.96 0 7.92 0 12 0 C16 7.75 16 7.75 16 10 C12.04 10 8.08 10 4 10 C2.68 6.7 1.36 3.4 0 0 Z " fill="#050505" transform="translate(238,333)"/>
<path d="M0 0 C1.98 0 3.96 0 6 0 C6.02685095 2.47923801 6.04676547 4.9581884 6.0625 7.4375 C6.07087891 8.14455078 6.07925781 8.85160156 6.08789062 9.58007812 C6.09653588 11.38693559 6.05220011 13.19387603 6 15 C5.67 15.33 5.34 15.66 5 16 C3.35 16 1.7 16 0 16 C0 10.72 0 5.44 0 0 Z " fill="#E9E9E9" transform="translate(329,354)"/>
<path d="M0 0 C5.28 0 10.56 0 16 0 C16 1.65 16 3.3 16 5 C10.72 5 5.44 5 0 5 C0 3.35 0 1.7 0 0 Z " fill="#EAEAEA" transform="translate(462,365)"/>
<path d="M0 0 C4.95 0 9.9 0 15 0 C15.33 1.65 15.66 3.3 16 5 C10.72 5 5.44 5 0 5 C0 3.35 0 1.7 0 0 Z " fill="#E9E9E9" transform="translate(462,354)"/>
<path d="M0 0 C5.28 0 10.56 0 16 0 C16 1.32 16 2.64 16 4 C10.72 4 5.44 4 0 4 C0 2.68 0 1.36 0 0 Z " fill="#EDEDED" transform="translate(462,376)"/>
<path d="M0 0 C1.98 0 3.96 0 6 0 C6 2.64 6 5.28 6 8 C4.02 8 2.04 8 0 8 C0 5.36 0 2.72 0 0 Z " fill="#E3E3E3" transform="translate(371,339)"/>
<path d="M0 0 C1.98 0 3.96 0 6 0 C6 2.31 6 4.62 6 7 C4.02 7 2.04 7 0 7 C0 4.69 0 2.38 0 0 Z " fill="#F4F4F4" transform="translate(371,366)"/>
<path d="M0 0 C1.98 0 3.96 0 6 0 C6 2.31 6 4.62 6 7 C4.02 7 2.04 7 0 7 C0 4.69 0 2.38 0 0 Z " fill="#F1F1F1" transform="translate(371,353)"/>
</svg>
